<?xml version="1.0" encoding="UTF-8"?>
<svg id="Layer_1" data-name="Layer 1" xmlns="http://www.w3.org/2000/svg" viewBox="0 0 96 96">
  <defs>
    <style>
      .cls-1 {
        fill: #bdf489;
      }

      .cls-2 {
        fill: #fff;
      }
    </style>
  </defs>
  <path class="cls-1" d="M79.12,91.71c-20.75,5.72-41.5,5.72-62.25,0-6.12-1.68-10.87-6.39-12.53-12.36-5.8-20.9-5.8-41.8,0-62.7,1.66-5.97,6.41-10.68,12.53-12.36,20.75-5.72,41.5-5.72,62.25,0,6.12,1.68,10.87,6.39,12.53,12.36,5.8,20.9,5.8,41.8,0,62.7-1.66,5.97-6.41,10.68-12.53,12.36Z"/>
  <path class="cls-2" d="M79.07,52.88h-25.42c.4,1.13,1.04,2.33,2.05,3.4,2.63,2.8,7.18,4.23,13.52,4.23h5.02v9.77h-5.02c-6.53,0-11.95-1.24-16.2-3.68v11.64h-10.03v-24.75c-1.16.39-2.39,1.02-3.5,2-2.88,2.56-4.34,6.99-4.34,13.16v4.88h-10.03v-4.88c0-6.36,1.27-11.63,3.78-15.77h-11.96v-9.77h25.42c-.4-1.13-1.04-2.33-2.05-3.4-2.63-2.8-7.18-4.23-13.52-4.23h-5.02v-9.77h5.02c6.53,0,11.95,1.24,16.2,3.68v-11.64h10.03v24.75c1.16-.39,2.39-1.02,3.5-2,2.88-2.56,4.34-6.99,4.34-13.16v-4.88h10.03v4.88c0,6.36-1.27,11.63-3.78,15.77h11.96v9.77Z"/>
</svg>